<svg width="48" height="48" viewBox="0 0 48 48" fill="none" xmlns="http://www.w3.org/2000/svg">
<path d="M40.634 8.31212C37.5747 6.90836 34.294 5.87413 30.8638 5.28178C30.8013 5.27035 30.7389 5.29892 30.7067 5.35606C30.2848 6.10649 29.8175 7.08549 29.4902 7.85497C25.8008 7.30264 22.1304 7.30264 18.5166 7.85497C18.1893 7.06838 17.705 6.10649 17.2811 5.35606C17.249 5.30083 17.1866 5.27226 17.1241 5.28178C13.6958 5.87224 10.4151 6.90647 7.35387 8.31212C7.32737 8.32355 7.30465 8.34261 7.28958 8.36736C1.06678 17.6641 -0.6379 26.7323 0.19836 35.6881C0.202144 35.7319 0.22674 35.7738 0.260796 35.8004C4.36642 38.8155 8.34341 40.6459 12.2466 41.8592C12.309 41.8783 12.3752 41.8554 12.415 41.804C13.3383 40.5431 14.1613 39.2136 14.867 37.8156C14.9086 37.7337 14.8688 37.6365 14.7837 37.6042C13.4783 37.1089 12.2352 36.5052 11.0395 35.8195C10.9449 35.7643 10.9373 35.629 11.0243 35.5642C11.2759 35.3757 11.5276 35.1795 11.7679 34.9814C11.8114 34.9452 11.872 34.9376 11.9231 34.9604C19.7786 38.547 28.2831 38.547 36.0459 34.9604C36.097 34.9357 36.1576 34.9433 36.203 34.9795C36.4433 35.1776 36.6949 35.3757 36.9484 35.5642C37.0354 35.629 37.0298 35.7643 36.9352 35.8195C35.7394 36.5185 34.4964 37.1089 33.189 37.6023C33.1039 37.6347 33.0661 37.7337 33.1077 37.8156C33.8285 39.2117 34.6515 40.5412 35.5578 41.8021C35.5956 41.8554 35.6637 41.8783 35.7262 41.8592C39.6483 40.6459 43.6252 38.8155 47.7309 35.8004C47.7668 35.7738 47.7895 35.7338 47.7933 35.69C48.7942 25.3361 46.117 16.3423 40.6964 8.36925C40.6832 8.34261 40.6605 8.32355 40.634 8.31212ZM16.04 30.2349C13.675 30.2349 11.7263 28.0637 11.7263 25.3971C11.7263 22.7305 13.6372 20.5592 16.04 20.5592C18.4617 20.5592 20.3916 22.7496 20.3538 25.3971C20.3538 28.0637 18.4428 30.2349 16.04 30.2349ZM31.9895 30.2349C29.6245 30.2349 27.6758 28.0637 27.6758 25.3971C27.6758 22.7305 29.5867 20.5592 31.9895 20.5592C34.4113 20.5592 36.3411 22.7496 36.3033 25.3971C36.3033 28.0637 34.4113 30.2349 31.9895 30.2349Z" fill="white"/>
</svg>
