<svg width="48" height="48" viewBox="0 0 48 48" fill="none" xmlns="http://www.w3.org/2000/svg">
<circle cx="24" cy="24" r="24" fill="white"/>
<path d="M31.4852 27.3512C32.1148 26.7215 32.2048 25.822 31.6651 24.9225C31.2153 24.2028 30.4057 23.843 29.5062 24.0229C29.1464 24.1129 28.7865 24.2928 28.4267 24.5627C25.6382 26.4517 21.8602 26.3617 19.0716 24.4727C18.8917 24.3827 18.7118 24.2928 18.5319 24.2028C17.5424 23.7531 16.5529 23.933 16.0132 24.8325C15.3835 25.7321 15.4735 26.7215 16.2831 27.5311C16.463 27.711 16.6429 27.801 16.7328 27.9809L16.8228 28.0708C18.0821 29.0603 19.6113 29.69 21.5903 29.9599L20.4209 31.1292C19.4314 32.1187 18.352 33.1982 17.3625 34.1876C17.0926 34.4575 16.7328 34.9073 16.7328 35.5369C16.7328 36.3465 17.1826 37.1561 17.9922 37.5159C18.262 37.6958 18.5319 37.6958 18.8017 37.6958C19.2515 37.6958 19.7912 37.5159 20.151 37.0662C21.5003 35.7169 22.5798 34.6374 23.6592 33.558C23.7492 33.468 23.7492 33.468 23.7492 33.468C23.7492 33.468 23.8391 33.468 23.8391 33.558C24.5588 34.3676 25.3683 35.0872 26.088 35.8968C26.4478 36.2566 26.8076 36.6164 27.1674 36.9762C27.6172 37.426 27.977 37.6059 28.5167 37.6059C29.3263 37.6958 30.2258 37.1561 30.5856 36.3465C30.9454 35.6269 30.7655 34.7274 30.1359 34.1876C29.2363 33.2881 28.3368 32.2986 27.3473 31.3991L25.8181 29.8699C26.6277 29.7799 27.5272 29.6 28.3368 29.2402C29.6861 28.7905 30.6756 28.1608 31.4852 27.3512Z" fill="black"/>
<path d="M23.7492 24.8325C27.6172 24.8325 30.7655 21.7741 30.7655 17.9061C30.7655 16.0171 30.0459 14.218 28.6966 12.8687C27.3473 11.5194 25.6382 10.7998 23.8391 10.7998C19.9711 10.7998 16.9127 13.9482 16.8228 17.7262C16.8228 19.6152 17.5424 21.3243 18.8917 22.6736C20.151 24.1129 21.8602 24.8325 23.7492 24.8325ZM21.7702 15.8372C22.3099 15.2975 23.0295 15.0276 23.7492 15.0276C25.3683 15.0276 26.5377 16.287 26.5377 17.8162C26.5377 19.4353 25.2784 20.6047 23.7492 20.6047C22.13 20.6047 20.9606 19.3454 20.9606 17.8162C20.9606 17.0965 21.2305 16.3769 21.7702 15.8372Z" fill="black"/>
<path d="M31.4852 27.3512C32.1148 26.7215 32.2048 25.822 31.6651 24.9225C31.2153 24.2028 30.4057 23.843 29.5062 24.0229C29.1464 24.1129 28.7865 24.2928 28.4267 24.5627C25.6382 26.4517 21.8602 26.3617 19.0716 24.4727C18.8917 24.3827 18.7118 24.2928 18.5319 24.2028C17.5424 23.7531 16.5529 23.933 16.0132 24.8325C15.3835 25.7321 15.4735 26.7215 16.2831 27.5311C16.463 27.711 16.6429 27.801 16.7328 27.9809L16.8228 28.0708C18.0821 29.0603 19.6113 29.69 21.5903 29.9599L20.4209 31.1292C19.4314 32.1187 18.352 33.1982 17.3625 34.1876C17.0926 34.4575 16.7328 34.9073 16.7328 35.5369C16.7328 36.3465 17.1826 37.1561 17.9922 37.5159C18.262 37.6958 18.5319 37.6958 18.8017 37.6958C19.2515 37.6958 19.7912 37.5159 20.151 37.0662C21.5003 35.7169 22.5798 34.6374 23.6592 33.558C23.7492 33.468 23.7492 33.468 23.7492 33.468C23.7492 33.468 23.8391 33.468 23.8391 33.558C24.5588 34.3676 25.3683 35.0872 26.088 35.8968C26.4478 36.2566 26.8076 36.6164 27.1674 36.9762C27.6172 37.426 27.977 37.6059 28.5167 37.6059C29.3263 37.6958 30.2258 37.1561 30.5856 36.3465C30.9454 35.6269 30.7655 34.7274 30.1359 34.1876C29.2363 33.2881 28.3368 32.2986 27.3473 31.3991L25.8181 29.8699C26.6277 29.7799 27.5272 29.6 28.3368 29.2402C29.6861 28.7905 30.6756 28.1608 31.4852 27.3512Z" fill="black"/>
</svg>
