<svg width="48" height="48" viewBox="0 0 48 48" fill="none" xmlns="http://www.w3.org/2000/svg">
<path fill-rule="evenodd" clip-rule="evenodd" d="M3.97316 1.66076C5.64372 0.538727 7.03586 0.191189 10.4267 0.0521774C11.441 0.0124588 18.153 -0.00740051 25.3424 0.00252914C38.9157 0.0223885 39.6317 0.0422478 41.3022 0.449356C44.2158 1.15435 46.8509 3.75589 47.5469 6.60566C47.9439 8.1913 47.9447 8.47132 47.9842 22.7568L47.9845 22.8404C48.0342 39.3135 48.0044 40.2171 47.2785 42.2129C46.6023 44.0697 44.8323 45.9861 42.8932 46.9493C40.8746 47.9621 39.0549 48.0515 21.8621 47.982C9.16383 47.9323 8.3385 47.9125 6.69777 47.5153C3.78423 46.8103 1.14912 44.2088 0.453053 41.359C0.0560772 39.7734 0.055302 39.4933 0.0157578 25.2082L0.0155253 25.1242C-0.0341938 8.65114 -0.00436232 7.74756 0.721536 5.75172C1.21873 4.40131 2.72024 2.5147 3.97316 1.66076ZM39.2231 6.14796C36.3546 7.24164 36.1661 11.0695 38.9195 12.3735C39.7152 12.7416 40.9296 12.7521 41.6729 12.3945C42.3639 12.058 42.9815 11.4271 43.3061 10.7225C43.683 9.91274 43.7039 8.68235 43.348 7.95674C42.7512 6.73687 41.809 6.09538 40.4794 6.01126C39.9141 5.97971 39.5895 6.01126 39.2231 6.14796ZM7.95322 37.125V24.3801V11.625L20.4089 11.6655C32.1328 11.6909 33.4431 11.6666 34.5435 12.1352C34.7553 12.2254 34.9594 12.3339 35.2285 12.4646C36.7741 13.2131 37.8045 14.5483 38.2288 16.3588C38.3803 17.0366 38.4106 17.603 38.4106 20.2329C38.4106 23.7226 38.3197 24.461 37.7035 25.7759C37.0367 27.192 35.6932 28.2036 33.9152 28.6183C33.5213 28.7093 33.1879 28.8105 33.1778 28.8509C33.1677 28.8813 34.4809 30.6919 36.0973 32.8868C36.9512 34.0538 37.7366 35.1236 38.2911 35.8787C38.7795 36.544 39.0887 36.9651 39.1076 36.9935C39.1683 37.0947 38.451 37.125 35.6629 37.125H32.1373L29.3593 32.9778L26.5913 28.8408L20.4594 28.8307H14.3174V32.9778V37.125H11.1353H7.95322ZM32.1777 20.4352C32.208 18.3313 32.0868 17.8963 31.3897 17.5018L30.9352 17.249L22.6314 17.2186L14.3174 17.1883V20.2329V23.2775L22.6819 23.2472L22.7589 23.2469C30.8756 23.2168 31.0474 23.2162 31.3897 23.0145C32.0464 22.6201 32.1474 22.3166 32.1777 20.4352Z" fill="white"/>
</svg>
