<svg width="48" height="48" viewBox="0 0 48 48" fill="none" xmlns="http://www.w3.org/2000/svg">
<g clip-path="url(#clip0_416_3541)">
<path d="M35.25 6.75C31.35 6.75 27.15 7.55 24.25 9.75C21.35 7.55 17.15 6.75 13.25 6.75C9.35 6.75 5.15 7.55 2.25 9.75V39.05C2.25 40.35 3.71 39.95 3.75 39.95C6.45 38.65 10.35 37.75 13.25 37.75C17.15 37.75 21.35 38.55 24.25 40.75C26.95 39.05 31.85 37.75 35.25 37.75C38.55 37.75 41.95 38.35 44.75 39.85C45.57 40.27 46.25 39.47 46.25 38.95V9.75C43.27 7.51 38.99 6.75 35.25 6.75ZM42.25 34.75C40.05 34.05 37.65 33.75 35.25 33.75C31.85 33.75 26.95 35.05 24.25 36.75V13.75C26.95 12.05 31.85 10.75 35.25 10.75C37.65 10.75 40.05 11.05 42.25 11.75V34.75Z" fill="black"/>
</g>
<defs>
<clipPath id="clip0_416_3541">
<rect width="48" height="48" fill="white"/>
</clipPath>
</defs>
</svg>
