<svg width="32" height="33" viewBox="0 0 32 33" fill="none" xmlns="http://www.w3.org/2000/svg">
<g clip-path="url(#clip0_848_11756)">
<path d="M26.68 21.0067C25.04 21.0067 23.4533 20.74 21.9733 20.26C21.5067 20.1 20.9867 20.22 20.6267 20.58L18.5333 23.2067C14.76 21.4067 11.2267 18.0067 9.34667 14.1L11.9467 11.8867C12.3067 11.5133 12.4133 10.9933 12.2667 10.5267C11.7733 9.04667 11.52 7.46 11.52 5.82C11.52 5.1 10.92 4.5 10.2 4.5H5.58667C4.86667 4.5 4 4.82 4 5.82C4 18.2067 14.3067 28.5 26.68 28.5C27.6267 28.5 28 27.66 28 26.9267V22.3267C28 21.6067 27.4 21.0067 26.68 21.0067Z" fill="#537EE7"/>
</g>
<defs>
<clipPath id="clip0_848_11756">
<rect width="32" height="32" fill="white" transform="translate(0 0.5)"/>
</clipPath>
</defs>
</svg>
