<svg width="441" height="135" viewBox="0 0 441 135" fill="none" xmlns="http://www.w3.org/2000/svg">
<path d="M39.6136 12.4545V59H29.8864V20.4545H11.0682V59H1.34091V12.4545H39.6136ZM89.8357 35.7273C89.8357 40.803 88.8736 45.1212 86.9493 48.6818C85.0402 52.2424 82.4342 54.9621 79.1311 56.8409C75.8433 58.7045 72.1463 59.6364 68.0402 59.6364C63.9039 59.6364 60.1917 58.697 56.9039 56.8182C53.616 54.9394 51.0175 52.2197 49.1084 48.6591C47.1993 45.0985 46.2448 40.7879 46.2448 35.7273C46.2448 30.6515 47.1993 26.3333 49.1084 22.7727C51.0175 19.2121 53.616 16.5 56.9039 14.6364C60.1917 12.7576 63.9039 11.8182 68.0402 11.8182C72.1463 11.8182 75.8433 12.7576 79.1311 14.6364C82.4342 16.5 85.0402 19.2121 86.9493 22.7727C88.8736 26.3333 89.8357 30.6515 89.8357 35.7273ZM79.8584 35.7273C79.8584 32.4394 79.366 29.6667 78.3811 27.4091C77.4114 25.1515 76.0402 23.4394 74.2675 22.2727C72.4948 21.1061 70.419 20.5227 68.0402 20.5227C65.6614 20.5227 63.5857 21.1061 61.813 22.2727C60.0402 23.4394 58.6614 25.1515 57.6766 27.4091C56.7069 29.6667 56.222 32.4394 56.222 35.7273C56.222 39.0152 56.7069 41.7879 57.6766 44.0455C58.6614 46.303 60.0402 48.0152 61.813 49.1818C63.5857 50.3485 65.6614 50.9318 68.0402 50.9318C70.419 50.9318 72.4948 50.3485 74.2675 49.1818C76.0402 48.0152 77.4114 46.303 78.3811 44.0455C79.366 41.7879 79.8584 39.0152 79.8584 35.7273ZM123.365 59L108.41 39.1591H105.046V59H95.2055V12.4545H105.046V31.0455H107.024L122.478 12.4545H134.728L116.569 34.0455L135.569 59H123.365ZM138.598 59V12.4545H156.962C160.492 12.4545 163.499 13.1288 165.984 14.4773C168.469 15.8106 170.363 17.6667 171.666 20.0455C172.984 22.4091 173.643 25.1364 173.643 28.2273C173.643 31.3182 172.977 34.0455 171.643 36.4091C170.31 38.7727 168.378 40.6136 165.848 41.9318C163.333 43.25 160.287 43.9091 156.712 43.9091H145.007V36.0227H155.121C157.015 36.0227 158.575 35.697 159.803 35.0455C161.045 34.3788 161.969 33.4621 162.575 32.2955C163.196 31.1136 163.507 29.7576 163.507 28.2273C163.507 26.6818 163.196 25.3333 162.575 24.1818C161.969 23.0151 161.045 22.1136 159.803 21.4773C158.56 20.8258 156.984 20.5 155.075 20.5H148.439V59H138.598ZM220.888 35.7273C220.888 40.803 219.926 45.1212 218.002 48.6818C216.093 52.2424 213.487 54.9621 210.184 56.8409C206.896 58.7045 203.199 59.6364 199.093 59.6364C194.956 59.6364 191.244 58.697 187.956 56.8182C184.668 54.9394 182.07 52.2197 180.161 48.6591C178.252 45.0985 177.297 40.7879 177.297 35.7273C177.297 30.6515 178.252 26.3333 180.161 22.7727C182.07 19.2121 184.668 16.5 187.956 14.6364C191.244 12.7576 194.956 11.8182 199.093 11.8182C203.199 11.8182 206.896 12.7576 210.184 14.6364C213.487 16.5 216.093 19.2121 218.002 22.7727C219.926 26.3333 220.888 30.6515 220.888 35.7273ZM210.911 35.7273C210.911 32.4394 210.418 29.6667 209.434 27.4091C208.464 25.1515 207.093 23.4394 205.32 22.2727C203.547 21.1061 201.472 20.5227 199.093 20.5227C196.714 20.5227 194.638 21.1061 192.865 22.2727C191.093 23.4394 189.714 25.1515 188.729 27.4091C187.759 29.6667 187.275 32.4394 187.275 35.7273C187.275 39.0152 187.759 41.7879 188.729 44.0455C189.714 46.303 191.093 48.0152 192.865 49.1818C194.638 50.3485 196.714 50.9318 199.093 50.9318C201.472 50.9318 203.547 50.3485 205.32 49.1818C207.093 48.0152 208.464 46.303 209.434 44.0455C210.418 41.7879 210.911 39.0152 210.911 35.7273ZM226.258 59V12.4545H244.894C248.319 12.4545 251.175 12.9621 253.462 13.9773C255.75 14.9924 257.47 16.4015 258.622 18.2045C259.773 19.9924 260.349 22.053 260.349 24.3864C260.349 26.2045 259.985 27.803 259.258 29.1818C258.531 30.5455 257.531 31.6667 256.258 32.5455C255 33.4091 253.561 34.0227 251.94 34.3864V34.8409C253.712 34.9167 255.372 35.4167 256.917 36.3409C258.478 37.2652 259.743 38.5606 260.712 40.2273C261.682 41.8788 262.167 43.8485 262.167 46.1364C262.167 48.6061 261.553 50.8106 260.326 52.75C259.114 54.6742 257.319 56.197 254.94 57.3182C252.561 58.4394 249.629 59 246.144 59H226.258ZM236.099 50.9545H244.122C246.864 50.9545 248.864 50.4318 250.122 49.3864C251.379 48.3258 252.008 46.9167 252.008 45.1591C252.008 43.8712 251.697 42.7348 251.076 41.75C250.455 40.7652 249.569 39.9924 248.417 39.4318C247.281 38.8712 245.925 38.5909 244.349 38.5909H236.099V50.9545ZM236.099 31.9318H243.394C244.743 31.9318 245.94 31.697 246.985 31.2273C248.046 30.7424 248.879 30.0606 249.485 29.1818C250.106 28.303 250.417 27.25 250.417 26.0227C250.417 24.3409 249.819 22.9848 248.622 21.9545C247.44 20.9242 245.758 20.4091 243.576 20.4091H236.099V31.9318ZM307.719 28.75H297.764C297.582 27.4621 297.211 26.3182 296.65 25.3182C296.09 24.303 295.37 23.4394 294.491 22.7273C293.613 22.0151 292.597 21.4697 291.446 21.0909C290.31 20.7121 289.075 20.5227 287.741 20.5227C285.332 20.5227 283.234 21.1212 281.446 22.3182C279.658 23.5 278.272 25.2273 277.287 27.5C276.302 29.7576 275.81 32.5 275.81 35.7273C275.81 39.0455 276.302 41.8333 277.287 44.0909C278.287 46.3485 279.681 48.053 281.469 49.2045C283.257 50.3561 285.325 50.9318 287.673 50.9318C288.991 50.9318 290.211 50.7576 291.332 50.4091C292.469 50.0606 293.476 49.553 294.355 48.8864C295.234 48.2045 295.961 47.3788 296.537 46.4091C297.128 45.4394 297.537 44.3333 297.764 43.0909L307.719 43.1364C307.461 45.2727 306.817 47.3333 305.787 49.3182C304.772 51.2879 303.4 53.053 301.673 54.6136C299.961 56.1591 297.916 57.3864 295.537 58.2955C293.173 59.1894 290.499 59.6364 287.514 59.6364C283.363 59.6364 279.65 58.697 276.378 56.8182C273.12 54.9394 270.544 52.2197 268.65 48.6591C266.772 45.0985 265.832 40.7879 265.832 35.7273C265.832 30.6515 266.787 26.3333 268.696 22.7727C270.605 19.2121 273.196 16.5 276.469 14.6364C279.741 12.7576 283.423 11.8182 287.514 11.8182C290.211 11.8182 292.711 12.197 295.014 12.9545C297.332 13.7121 299.385 14.8182 301.173 16.2727C302.961 17.7121 304.416 19.4773 305.537 21.5682C306.673 23.6591 307.4 26.053 307.719 28.75ZM341.015 59L326.06 39.1591H322.696V59H312.855V12.4545H322.696V31.0455H324.674L340.128 12.4545H352.378L334.219 34.0455L353.219 59H341.015ZM356.248 12.4545H366.066V41.7273H366.453L386.566 12.4545H395.18V59H385.339V29.7045H384.998L364.771 59H356.248V12.4545ZM401.39 12.4545H411.209V41.7273H411.595L431.709 12.4545H440.322V59H430.481V29.7045H430.14L409.913 59H401.39V12.4545ZM425.39 0.272724H432.14C432.125 3.0303 431.103 5.25 429.072 6.93182C427.057 8.61363 424.33 9.45454 420.89 9.45454C417.436 9.45454 414.701 8.61363 412.686 6.93182C410.671 5.25 409.663 3.0303 409.663 0.272724H416.368C416.353 1.31818 416.686 2.25757 417.368 3.09091C418.065 3.92424 419.239 4.34091 420.89 4.34091C422.497 4.34091 423.648 3.93182 424.345 3.11364C425.042 2.29545 425.39 1.34848 425.39 0.272724ZM28.2045 123L13.25 103.159H9.88636V123H0.0454545V76.4545H9.88636V95.0455H11.8636L27.3182 76.4545H39.5682L21.4091 98.0455L40.4091 123H28.2045ZM83.5857 99.7273C83.5857 104.803 82.6236 109.121 80.6993 112.682C78.7902 116.242 76.1842 118.962 72.8811 120.841C69.5933 122.705 65.8963 123.636 61.7902 123.636C57.6539 123.636 53.9417 122.697 50.6539 120.818C47.366 118.939 44.7675 116.22 42.8584 112.659C40.9493 109.098 39.9948 104.788 39.9948 99.7273C39.9948 94.6515 40.9493 90.3333 42.8584 86.7727C44.7675 83.2121 47.366 80.5 50.6539 78.6364C53.9417 76.7576 57.6539 75.8182 61.7902 75.8182C65.8963 75.8182 69.5933 76.7576 72.8811 78.6364C76.1842 80.5 78.7902 83.2121 80.6993 86.7727C82.6236 90.3333 83.5857 94.6515 83.5857 99.7273ZM73.6084 99.7273C73.6084 96.4394 73.116 93.6667 72.1311 91.4091C71.1614 89.1515 69.7902 87.4394 68.0175 86.2727C66.2448 85.1061 64.169 84.5227 61.7902 84.5227C59.4114 84.5227 57.3357 85.1061 55.563 86.2727C53.7902 87.4394 52.4114 89.1515 51.4266 91.4091C50.4569 93.6667 49.972 96.4394 49.972 99.7273C49.972 103.015 50.4569 105.788 51.4266 108.045C52.4114 110.303 53.7902 112.015 55.563 113.182C57.3357 114.348 59.4114 114.932 61.7902 114.932C64.169 114.932 66.2448 114.348 68.0175 113.182C69.7902 112.015 71.1614 110.303 72.1311 108.045C73.116 105.788 73.6084 103.015 73.6084 99.7273ZM86.4327 123V115.091L87.7509 114.977C89.4479 114.841 90.8191 114.197 91.8645 113.045C92.91 111.879 93.6903 110.023 94.2055 107.477C94.7358 104.917 95.0767 101.477 95.2282 97.1591L96.0009 76.4545H127.592V123H118.024V84.3409H105.137L104.41 100.545C104.168 105.758 103.546 110.015 102.546 113.318C101.562 116.621 99.9858 119.061 97.8191 120.636C95.6676 122.212 92.7206 123 88.9782 123H86.4327ZM131.263 123V115.091L132.581 114.977C134.278 114.841 135.649 114.197 136.695 113.045C137.74 111.879 138.52 110.023 139.035 107.477C139.566 104.917 139.907 101.477 140.058 97.1591L140.831 76.4545H172.422V123H162.854V84.3409H149.967L149.24 100.545C148.998 105.758 148.376 110.015 147.376 113.318C146.392 116.621 144.816 119.061 142.649 120.636C140.498 122.212 137.551 123 133.808 123H131.263ZM178.615 123V76.4545H209.979V84.5682H188.456V95.6591H208.365V103.773H188.456V114.886H210.07V123H178.615ZM213.36 134.227V115.159H216.519C217.595 114.386 218.58 113.295 219.474 111.886C220.368 110.462 221.133 108.5 221.769 106C222.406 103.485 222.86 100.197 223.133 96.1364L224.451 76.4545H255.247V115.159H260.337V134.182H250.883V123H222.815V134.227H213.36ZM227.883 115.159H245.792V84.5682H233.315L232.587 96.1364C232.391 99.2121 232.065 101.939 231.61 104.318C231.171 106.697 230.633 108.78 229.997 110.568C229.375 112.341 228.671 113.871 227.883 115.159ZM299.855 76.4545V123H290.31V76.4545H299.855ZM262.196 123L276.787 98.4545L262.81 76.4545H274.923L285.378 95.6136H305.037L315.219 76.4545H327.287L313.65 98.3864L327.969 123H316.219L306.378 104.705H283.946L273.855 123H262.196Z" fill="white"/>
</svg>
